<?xml version="1.0" standalone="no"?><!DOCTYPE svg PUBLIC "-//W3C//DTD SVG 1.1//EN" "http://www.w3.org/Graphics/SVG/1.1/DTD/svg11.dtd"><svg t="1631156790332" class="icon" viewBox="0 0 1024 1024" version="1.1" xmlns="http://www.w3.org/2000/svg" p-id="12274" xmlns:xlink="http://www.w3.org/1999/xlink" width="32" height="32"><defs><style type="text/css"></style></defs><path d="M256 768c0 25.6 17.066667 42.666667 42.666667 42.666667h42.666666v149.333333c0 34.133333 29.866667 64 64 64s64-29.866667 64-64V810.666667h85.333334v149.333333c0 34.133333 29.866667 64 64 64s64-29.866667 64-64V810.666667h42.666666c25.6 0 42.666667-17.066667 42.666667-42.666667V341.333333H256v426.666667zM149.333333 341.333333C115.2 341.333333 85.333333 371.2 85.333333 405.333333v298.666667c0 34.133333 29.866667 64 64 64S213.333333 738.133333 213.333333 704v-298.666667C213.333333 371.2 183.466667 341.333333 149.333333 341.333333z m725.333334 0c-34.133333 0-64 29.866667-64 64v298.666667c0 34.133333 29.866667 64 64 64s64-29.866667 64-64v-298.666667c0-34.133333-29.866667-64-64-64z m-213.333334-247.466666L716.8 38.4c8.533333-8.533333 8.533333-21.333333 0-29.866667-8.533333-8.533333-21.333333-8.533333-29.866667 0l-64 64C593.066667 51.2 554.666667 42.666667 512 42.666667s-81.066667 8.533333-115.2 25.6L337.066667 4.266667c-8.533333-4.266667-25.6-4.266667-34.133334 0-4.266667 8.533333-4.266667 25.6 0 34.133333l55.466667 55.466667C298.666667 140.8 256 213.333333 256 298.666667h512c0-85.333333-42.666667-162.133333-106.666667-204.8zM426.666667 213.333333H384V170.666667h42.666667v42.666666z m213.333333 0h-42.666667V170.666667h42.666667v42.666666z" p-id="12275" fill="#3ddc84"></path></svg>