<?xml version="1.0" standalone="no"?><!DOCTYPE svg PUBLIC "-//W3C//DTD SVG 1.1//EN" "http://www.w3.org/Graphics/SVG/1.1/DTD/svg11.dtd"><svg t="1631156885732" class="icon" viewBox="0 0 1024 1024" version="1.1" xmlns="http://www.w3.org/2000/svg" p-id="14412" xmlns:xlink="http://www.w3.org/1999/xlink" width="32" height="32"><defs><style type="text/css"></style></defs><path d="M399.926857 284.635429c5.138286 0 7.716571-2.998857 8.576-7.698286 14.573714-68.571429 13.714286-71.149714 85.284572-85.723429 5.138286-0.859429 8.137143-3.84 8.137142-8.576 0-5.138286-2.998857-8.137143-8.137142-8.996571-71.570286-14.573714-70.710857-17.133714-85.284572-85.284572-0.859429-4.717714-3.437714-8.137143-8.576-8.137142-5.138286 0-7.716571 3.419429-8.996571 8.137142-14.153143 68.150857-13.293714 70.710857-85.284572 85.284572-4.717714 0.859429-8.137143 3.858286-8.137143 8.996571 0 4.717714 3.419429 7.716571 8.137143 8.576 71.990857 14.573714 71.131429 17.152 85.284572 85.723429 1.28 4.699429 3.84 7.698286 8.996571 7.698286z m354.011429 151.296c5.997714 0 9.417143-3.858286 10.276571-9.435429 14.994286-81.426286 15.433143-86.564571 101.558857-101.577143 5.577143-0.841143 9.874286-4.699429 9.874286-10.697143 0-6.016-4.297143-9.435429-9.874286-10.715428-86.125714-14.573714-86.564571-19.712-101.558857-101.156572-0.859429-5.558857-4.278857-9.856-10.276571-9.856-6.016 0-9.874286 4.297143-10.715429 9.874286-14.573714 81.426286-14.994286 86.564571-101.156571 101.12-5.997714 1.298286-9.856 4.717714-9.856 10.733714 0 5.997714 3.858286 9.856 9.874285 10.697143 86.125714 14.994286 86.564571 20.150857 101.12 101.577143 0.859429 5.577143 4.717714 9.435429 10.733715 9.435429zM165.065143 558.921143c6.016 0 9.435429-4.278857 10.294857-9.856 14.994286-81.426286 15.433143-86.564571 101.577143-101.12 5.558857-1.298286 9.856-4.736 9.856-10.733714 0-5.997714-4.297143-9.856-9.874286-10.715429-86.125714-14.994286-86.564571-20.132571-101.558857-101.577143-0.859429-5.558857-4.297143-9.417143-10.294857-9.417143-5.997714 0-9.856 3.84-10.697143 9.417143-14.994286 81.444571-14.994286 86.582857-101.156571 101.577143-5.997714 0.859429-9.856 4.717714-9.856 10.715429 0 5.997714 3.858286 9.435429 9.874285 10.715428 86.125714 14.573714 86.125714 19.712 101.12 101.138286 0.859429 5.577143 4.717714 9.874286 10.715429 9.874286z m732.013714 366.445714c17.993143 18.413714 48.841143 18.413714 65.993143 0 17.152-19.291429 17.554286-48.018286 0-66.011428l-407.570286-408.868572c-17.993143-17.993143-48.859429-17.993143-66.011428 0-17.554286 19.291429-17.554286 48.457143 0 66.450286z m-528.438857 6.838857c7.716571 0 13.293714-5.558857 14.153143-13.714285 14.134857-114.413714 19.712-117.412571 135.862857-136.283429 9.417143-1.700571 14.994286-5.997714 14.994286-14.573714 0-8.137143-5.577143-13.275429-13.293715-14.555429-116.992-22.308571-123.428571-21.869714-137.563428-136.283428-0.859429-8.155429-6.436571-13.714286-14.153143-13.714286-8.137143 0-13.714286 5.558857-14.573714 13.275428-14.994286 116.150857-19.273143 120.009143-137.563429 136.722286-7.716571 0.859429-13.293714 6.418286-13.293714 14.573714 0 8.137143 5.577143 12.854857 13.293714 14.555429 118.290286 22.710857 122.148571 22.710857 137.563429 137.142857a14.153143 14.153143 0 0 0 14.573714 12.854857z m543.872-36.425143L648.045714 630.930286l21.010286-20.571429 264.411429 264.850286c7.734857 7.296 9.435429 15.853714 2.578285 23.588571-7.716571 6.4-15.853714 5.12-23.552-3.017143z" p-id="14413" fill="#1296db"></path></svg>