<?xml version="1.0" standalone="no"?><!DOCTYPE svg PUBLIC "-//W3C//DTD SVG 1.1//EN" "http://www.w3.org/Graphics/SVG/1.1/DTD/svg11.dtd"><svg t="1631156917841" class="icon" viewBox="0 0 1024 1024" version="1.1" xmlns="http://www.w3.org/2000/svg" p-id="15581" xmlns:xlink="http://www.w3.org/1999/xlink" width="32" height="32"><defs><style type="text/css"></style></defs><path d="M0 718.976c0 82.998857 53.906286 136.905143 135.131429 136.905143 41.142857 0 81.938286-17.737143 111.725714-54.619429l64.201143-77.677714c9.234286-10.989714 19.876571-16.310857 30.518857-16.310857h340.845714c10.642286 0 21.284571 5.302857 30.171429 16.310857l64.182857 77.677714c30.153143 36.882286 70.582857 54.619429 112.091428 54.619429 80.859429 0 135.131429-53.906286 135.131429-136.905143 0-35.474286-8.521143-76.251429-21.997714-122.020571-21.632-72.704-59.574857-171.666286-96.109715-248.283429-30.153143-63.853714-45.769143-92.928-120.96-109.952-67.035429-15.250286-159.616-25.545143-273.115428-25.545143-113.499429 0-206.08 10.294857-272.749714 25.545143-75.209143 17.005714-90.806857 46.098286-121.307429 109.952-36.187429 76.617143-74.130286 175.579429-95.762286 248.283429C8.155429 642.706286 0 683.52 0 718.994286z m54.272 2.121143c0-22.345143 4.955429-49.298286 16.310857-87.954286 23.771429-81.590857 64.914286-187.282286 100.736-265.673143 17.371429-37.942857 26.953143-61.001143 73.069714-71.643428 64.182857-15.250286 155.355429-25.545143 267.428572-25.545143 112.091429 0 203.245714 10.294857 267.794286 25.545143 45.750857 10.642286 55.332571 33.700571 73.069714 71.643428 36.534857 78.390857 75.904 184.448 100.388571 265.673143 11.702857 38.656 16.658286 65.609143 16.658286 87.954286 0 48.950857-34.395429 79.817143-80.164571 79.817143-26.953143 0-53.211429-14.189714-73.764572-39.369143l-66.688-80.530286c-17.024-20.571429-31.561143-30.848-64.182857-30.848H339.072c-32.987429 0-47.177143 10.276571-64.201143 30.848l-66.688 80.530286c-20.571429 25.179429-46.811429 39.369143-73.764571 39.369143-45.769143 0-80.164571-30.866286-80.164572-79.817143z m170.605714-257.865143c0 18.450286 10.642286 29.805714 29.44 29.805714h63.488v62.061715c0 18.102857 10.642286 29.44 28.379429 29.44 17.371429 0 27.666286-11.337143 27.666286-29.44v-62.061715h60.288c19.858286 0 31.579429-11.355429 31.579428-29.805714 0-17.737143-11.702857-28.708571-31.579428-28.708571h-60.288v-62.08c0-18.102857-10.294857-29.074286-27.666286-29.074286-17.737143 0-28.379429 10.971429-28.379429 29.074286v62.061714h-63.488c-18.797714 0-29.44 10.989714-29.44 28.726857z m507.556572-4.608c28.745143 0 51.090286-21.997714 51.090285-50.724571 0-29.074286-22.345143-51.419429-51.090285-51.419429-28.361143 0-51.072 22.345143-51.072 51.419429 0 28.745143 22.710857 50.724571 51.072 50.724571z m-104.265143 105.344c28.708571 0 50.706286-22.345143 50.706286-51.072 0-29.074286-21.979429-51.437714-50.706286-51.437714-28.745143 0-51.090286 22.345143-51.090286 51.437714a50.432 50.432 0 0 0 51.090286 51.072z" p-id="15582" fill="#d81e06"></path></svg>