<?xml version="1.0" standalone="no"?><!DOCTYPE svg PUBLIC "-//W3C//DTD SVG 1.1//EN" "http://www.w3.org/Graphics/SVG/1.1/DTD/svg11.dtd"><svg t="1653052100086" class="icon" viewBox="0 0 1024 1024" version="1.1" xmlns="http://www.w3.org/2000/svg" p-id="73392" xmlns:xlink="http://www.w3.org/1999/xlink" width="200" height="200"><defs><style type="text/css"></style></defs><path d="M267.434667 380.416v256h-41.984v-256zM503.125333 399.018667a95.744 95.744 0 0 1 34.133334 61.781333h-40.96a59.733333 59.733333 0 0 0-23.893334-37.034667 77.141333 77.141333 0 0 0-44.202666-11.434666 70.144 70.144 0 0 0-60.586667 27.648 111.616 111.616 0 0 0-18.602667 68.266666 114.176 114.176 0 0 0 18.261334 69.461334 73.898667 73.898667 0 0 0 62.122666 26.282666 73.216 73.216 0 0 0 44.714667-13.312 79.530667 79.530667 0 0 0 25.770667-43.690666h40.96a113.322667 113.322667 0 0 1-40.277334 70.144 109.226667 109.226667 0 0 1-70.826666 23.722666 114.346667 114.346667 0 0 1-95.402667-40.106666A144.554667 144.554667 0 0 1 307.2 508.757333a144.384 144.384 0 0 1 28.16-92.842666A111.616 111.616 0 0 1 428.544 375.466667a114.688 114.688 0 0 1 74.581333 23.552zM621.738667 380.416v159.573333a68.266667 68.266667 0 0 0 15.530666 48.981334 65.706667 65.706667 0 0 0 48.981334 15.872 68.266667 68.266667 0 0 0 49.152-15.872 68.266667 68.266667 0 0 0 15.36-48.981334v-159.573333h41.984v158.72a100.181333 100.181333 0 0 1-27.989334 76.458667 111.786667 111.786667 0 0 1-78.506666 25.770666 110.592 110.592 0 0 1-77.994667-25.429333 99.669333 99.669333 0 0 1-27.989333-76.8v-158.72z" p-id="73393"></path><path d="M869.034667 807.082667H149.162667a83.797333 83.797333 0 0 1-83.797334-83.797334V293.546667a83.797333 83.797333 0 0 1 83.797334-83.797334h719.872a83.797333 83.797333 0 0 1 83.797333 83.797334v429.738666a83.797333 83.797333 0 0 1-83.797333 83.797334z m-719.872-546.133334a32.597333 32.597333 0 0 0-32.597334 32.597334v429.738666a32.768 32.768 0 0 0 32.597334 32.597334h719.872a32.768 32.768 0 0 0 32.597333-32.597334V293.546667a32.597333 32.597333 0 0 0-32.597333-32.597334z" p-id="73394"></path></svg>