<?xml version="1.0" standalone="no"?><!DOCTYPE svg PUBLIC "-//W3C//DTD SVG 1.1//EN" "http://www.w3.org/Graphics/SVG/1.1/DTD/svg11.dtd"><svg t="1653052360493" class="icon" viewBox="0 0 1024 1024" version="1.1" xmlns="http://www.w3.org/2000/svg" p-id="78539" xmlns:xlink="http://www.w3.org/1999/xlink" width="200" height="200"><defs><style type="text/css"></style></defs><path d="M602.2 512.5H818c0 113.2-61.5 212-152.9 264.9L557.2 590.6c26.9-15.6 45-44.7 45-78.1zM467 590.6L359.1 777.4c-91.4-52.9-152.9-151.7-152.9-264.9h215.7c0 33.4 18.2 62.5 45.1 78.1z m45.1-142.5c-35.6 0-64.4 28.8-64.4 64.4s28.8 64.4 64.4 64.4c35.6 0 64.4-28.8 64.4-64.4 0-35.6-28.8-64.4-64.4-64.4z m0-241.5c55.7 0 108 14.9 153 41L557.2 434.4c-13.3-7.7-28.7-12.1-45.1-12.1-16.4 0-31.8 4.4-45.1 12.1L359.1 247.6c45-26.1 97.3-41 153-41z" fill="#F08B2C" p-id="78540"></path><path d="M755.7 268.9C693.4 206.6 607.2 168 512.1 168s-181.3 38.6-243.6 100.9c-62.3 62.3-100.9 148.5-100.9 243.6s38.6 181.3 100.9 243.6C330.8 818.4 417 857 512.1 857s181.3-38.6 243.6-100.9c62.3-62.3 100.9-148.5 100.9-243.6S818 331.2 755.7 268.9zM512.1 129.4c105.8 0 201.6 42.9 270.9 112.2 69.3 69.4 112.2 165.1 112.2 270.9 0 105.8-42.9 201.6-112.2 270.9-69.3 69.3-165.1 112.2-270.9 112.2-105.8 0-201.6-42.9-270.9-112.2C171.8 714.1 129 618.3 129 512.5c0-105.8 42.9-201.6 112.2-270.9 69.3-69.4 165.1-112.2 270.9-112.2z" fill="#F08B2C" p-id="78541"></path></svg>