<?xml version="1.0" standalone="no"?><!DOCTYPE svg PUBLIC "-//W3C//DTD SVG 1.1//EN" "http://www.w3.org/Graphics/SVG/1.1/DTD/svg11.dtd"><svg t="1653052965703" class="icon" viewBox="0 0 1024 1024" version="1.1" xmlns="http://www.w3.org/2000/svg" p-id="82834" xmlns:xlink="http://www.w3.org/1999/xlink" width="200" height="200"><defs><style type="text/css"></style></defs><path d="M264.288 714.464A318.496 318.496 0 0 1 192 512c0-176.736 143.264-320 320-320 76.832 0 147.328 27.136 202.464 72.288L264.288 714.464zM759.712 309.536L309.536 759.712A318.496 318.496 0 0 0 512 832c176.704 0 320-143.296 320-320a318.496 318.496 0 0 0-72.288-202.464z" fill="#34B5C7" p-id="82835"></path><path d="M383.776 394.944c0-44.672 26.048-95.68 96.224-104.992V224h32v64.672c69.952 3.52 100.512 44.576 108.32 57.696l-27.488 16.384c-4.256-7.2-28.544-42.752-89.952-42.752-80.832 0-87.104 57.376-87.104 74.944 0 31.168 10.368 61.92 89.344 75.616l2.592 0.48-27.232 27.232c-46.112-10.816-96.704-35.008-96.704-103.328z m194.304 96.224l-24.736 24.736c40.192 14.88 56.192 36.64 54.752 69.664-1.728 39.424-21.792 86.432-107.712 86.432-29.792 0-55.2-8.704-76.928-26.208l-22.784 22.784c22.848 19.296 49.344 30.72 79.328 34.24V768h32v-64.512c110.656-5.184 126.592-82.56 128.064-116.544 2.208-51.776-27.808-79.84-61.984-95.776zM512 128C299.936 128 128 299.936 128 512s171.936 384 384 384 384-171.936 384-384S724.064 128 512 128z m416 384c0 229.76-186.24 416-416 416S96 741.76 96 512 282.24 96 512 96s416 186.24 416 416z" fill="#413A4D" p-id="82836"></path></svg>