<?xml version="1.0" standalone="no"?><!DOCTYPE svg PUBLIC "-//W3C//DTD SVG 1.1//EN" "http://www.w3.org/Graphics/SVG/1.1/DTD/svg11.dtd"><svg t="1666322866741" class="icon" viewBox="0 0 1024 1024" version="1.1" xmlns="http://www.w3.org/2000/svg" p-id="4238" xmlns:xlink="http://www.w3.org/1999/xlink" width="36" height="36"><path d="M746.624 469.344H277.376C124.22 469.344 0.064 593.5 0.064 746.656c0 153.186 124.156 277.34 277.312 277.34 78.716 0 149.748-32.782 200.248-85.436h68.782c50.468 52.654 121.532 85.436 200.216 85.436 153.188 0 277.312-124.154 277.312-277.34 0.002-153.156-124.124-277.312-277.31-277.312z" fill="#CCD1D9" p-id="4239"></path><path d="M789.342 170.658H234.69c-11.782 0-21.344-9.562-21.344-21.312 0-11.782 9.562-21.344 21.344-21.344h234.654c35.344 0 64-28.656 64-64V21.348c0-11.782-9.532-21.344-21.344-21.344-11.75 0-21.312 9.562-21.312 21.344v42.654c0 11.75-9.562 21.344-21.344 21.344H234.69c-35.376 0-64 28.656-64 64s28.624 64 64 64h554.652c11.782 0 21.344 9.562 21.344 21.312 0 11.782-9.562 21.344-21.344 21.344H554.688c-35.374 0-64 28.656-64 64v52h42.656v-52c0-11.75 9.562-21.344 21.344-21.344h234.654c35.344 0 64-28.656 64-64s-28.656-64-64-64z" fill="#434A54" p-id="4240"></path><path d="M565.344 512c0 11.782-9.532 21.344-21.344 21.344h-64c-11.75 0-21.312-9.562-21.312-21.344v-149.342c0-11.782 9.562-21.312 21.312-21.312h64c11.812 0 21.344 9.532 21.344 21.312V512z" fill="#656D78" p-id="4241"></path><path d="M746.624 426.656H277.376C124.22 426.656 0.064 550.844 0.064 704c0 153.154 124.156 277.34 277.312 277.34 78.716 0 149.748-32.81 200.248-85.436h68.782c50.468 52.624 121.532 85.436 200.216 85.436 153.188 0 277.312-124.186 277.312-277.34 0.002-153.156-124.124-277.344-277.31-277.344z" fill="#E6E9ED" p-id="4242"></path><path d="M746.624 639.906c-23.532 0-42.688-19.156-42.688-42.688 0-23.5 19.156-42.656 42.688-42.656s42.688 19.156 42.688 42.656c-0.002 23.532-19.158 42.688-42.688 42.688z" fill="#FFCE54" p-id="4243"></path><path d="M746.624 533.218c-35.344 0-63.998 28.656-63.998 64s28.654 64 63.998 64 64-28.656 64-64-28.658-64-64-64z m0 85.344c-11.75 0-21.312-9.562-21.312-21.344 0-11.75 9.562-21.312 21.312-21.312s21.312 9.562 21.312 21.312c0 11.782-9.562 21.344-21.312 21.344z" fill="#F6BB42" p-id="4244"></path><path d="M853.31 746.562c-23.562 0-42.688-19.156-42.688-42.656 0-23.532 19.124-42.688 42.688-42.688 23.5 0 42.624 19.156 42.624 42.688 0.002 23.5-19.124 42.656-42.624 42.656z" fill="#ED5564" p-id="4245"></path><path d="M853.31 639.906c-35.376 0-64 28.624-64 64 0 35.344 28.624 64 64 64 35.312 0 64-28.656 64-64 0-35.374-28.686-64-64-64z m0 85.312c-11.782 0-21.376-9.562-21.376-21.312 0-11.782 9.594-21.344 21.376-21.344 11.75 0 21.312 9.562 21.312 21.344 0.002 11.75-9.562 21.312-21.312 21.312z" fill="#DA4453" p-id="4246"></path><path d="M639.938 746.562c-23.5 0-42.624-19.156-42.624-42.656 0-23.532 19.124-42.688 42.624-42.688 23.562 0 42.688 19.156 42.688 42.688-0.002 23.5-19.126 42.656-42.688 42.656z" fill="#A0D468" p-id="4247"></path><path d="M639.938 639.906c-35.312 0-64 28.624-64 64 0 35.344 28.688 64 64 64 35.376 0 63.998-28.656 63.998-64 0-35.374-28.624-64-63.998-64z m0 85.312c-11.75 0-21.312-9.562-21.312-21.312 0-11.782 9.562-21.344 21.312-21.344 11.782 0 21.376 9.562 21.376 21.344-0.002 11.75-9.596 21.312-21.376 21.312z" fill="#8CC153" p-id="4248"></path><path d="M746.624 853.216c-23.532 0-42.688-19.124-42.688-42.656 0-23.53 19.156-42.654 42.688-42.654s42.688 19.124 42.688 42.654c-0.002 23.532-19.158 42.656-42.688 42.656z" fill="#5D9CEC" p-id="4249"></path><path d="M746.624 746.562c-35.344 0-63.998 28.656-63.998 63.998 0 35.344 28.654 64 63.998 64s64-28.656 64-64c0-35.342-28.658-63.998-64-63.998z m0 85.342c-11.75 0-21.312-9.594-21.312-21.344 0-11.782 9.562-21.342 21.312-21.342s21.312 9.56 21.312 21.342c0 11.75-9.562 21.344-21.312 21.344z" fill="#4A89DC" p-id="4250"></path><path d="M362.624 661.218H191.94c-23.562 0-42.624 19.124-42.624 42.688s19.062 42.656 42.624 42.656h170.686c23.562 0 42.688-19.094 42.688-42.656s-19.126-42.688-42.69-42.688z" fill="#434A54" p-id="4251"></path><path d="M319.94 789.218v-170.656c0-23.562-19.062-42.656-42.624-42.656-23.594 0-42.688 19.094-42.688 42.656v170.656c0 23.56 19.094 42.686 42.688 42.686 23.56 0 42.624-19.124 42.624-42.686z" fill="#656D78" p-id="4252"></path></svg>